#define Flappy_Pig_Logo_width 108
#define Flappy_Pig_Logo_height 39
static unsigned char Flappy_Pig_Logo_bits[] = {
   0x00, 0xf0, 0x1f, 0x00, 0x00, 0x00, 0x00, 0x00, 0x00, 0x00, 0x00, 0x00,
   0x00, 0x00, 0x00, 0xff, 0x3f, 0x00, 0x00, 0x00, 0x00, 0x00, 0x00, 0x00,
   0x00, 0x00, 0x00, 0x00, 0xc0, 0xff, 0x1f, 0x00, 0x00, 0x00, 0x00, 0x00,
   0x00, 0x00, 0x00, 0x00, 0x00, 0x00, 0xf0, 0xff, 0x1f, 0x00, 0x00, 0x00,
   0x00, 0x00, 0x00, 0x00, 0x00, 0x00, 0x00, 0x00, 0xfc, 0xff, 0x1f, 0x00,
   0x00, 0x00, 0x00, 0x00, 0x00, 0x00, 0x00, 0x00, 0x00, 0x00, 0xff, 0xff,
   0x01, 0x00, 0x00, 0x00, 0x00, 0x00, 0x00, 0x00, 0x00, 0x00, 0x00, 0x00,
   0xff, 0x1f, 0x00, 0x00, 0x00, 0x00, 0x00, 0x00, 0x00, 0x00, 0x00, 0x00,
   0x00, 0x00, 0xfe, 0x03, 0x00, 0x00, 0x00, 0x00, 0x00, 0x00, 0x00, 0x00,
   0x00, 0x00, 0x00, 0x00, 0x3c, 0x00, 0x00, 0x00, 0x00, 0x00, 0x00, 0x00,
   0x00, 0x00, 0x00, 0x00, 0x00, 0x00, 0x78, 0x00, 0x00, 0x00, 0x00, 0x00,
   0x00, 0xf8, 0x20, 0x08, 0x00, 0x00, 0x00, 0x00, 0xf8, 0x7e, 0x00, 0x00,
   0x00, 0xc0, 0x07, 0xfe, 0x73, 0x1c, 0x00, 0x00, 0x00, 0x00, 0xf0, 0xff,
   0x00, 0xe0, 0x01, 0xf0, 0x1f, 0xff, 0x73, 0x1c, 0x00, 0x00, 0x00, 0x00,
   0xf0, 0xff, 0x00, 0xf0, 0x07, 0xf8, 0x5f, 0xff, 0x73, 0x1c, 0x00, 0x00,
   0x00, 0x00, 0xf0, 0x07, 0x00, 0xf0, 0x0f, 0xfa, 0xdf, 0xe7, 0x73, 0x1c,
   0x00, 0x00, 0x00, 0x00, 0xe0, 0x03, 0x00, 0xf4, 0x1f, 0x3e, 0xdf, 0xe7,
   0x73, 0x1c, 0x00, 0x00, 0x00, 0x00, 0xe0, 0xc3, 0x01, 0xfc, 0x1f, 0x3e,
   0xdf, 0xf7, 0x71, 0x1c, 0x7e, 0x00, 0x00, 0x00, 0xe0, 0xc7, 0x01, 0xf8,
   0x1e, 0xbe, 0xcf, 0xff, 0xe0, 0x0f, 0xc3, 0x38, 0x00, 0x00, 0xc0, 0xc7,
   0x01, 0xf8, 0x3e, 0xfe, 0x87, 0x7f, 0xc0, 0x8f, 0x81, 0x29, 0x00, 0x00,
   0xc0, 0xc7, 0x01, 0xf8, 0x3c, 0xfc, 0x83, 0x3f, 0x00, 0x8e, 0x00, 0x2d,
   0x00, 0x00, 0xc0, 0xc7, 0x03, 0xf8, 0x3e, 0xfc, 0x81, 0x1f, 0x00, 0x4e,
   0x0e, 0x25, 0x00, 0x00, 0xc0, 0xcf, 0x03, 0xf0, 0x7f, 0xfc, 0x80, 0x0f,
   0x00, 0x4e, 0x8a, 0x2d, 0x00, 0x00, 0xc0, 0xcf, 0x03, 0xf0, 0x7f, 0x7c,
   0x80, 0x0f, 0x00, 0x4e, 0x8a, 0x38, 0x00, 0x00, 0xc0, 0x8f, 0xe3, 0xf0,
   0x7f, 0x7c, 0x80, 0x0f, 0x00, 0x4e, 0x8e, 0x00, 0x00, 0x00, 0xc0, 0x8f,
   0xfb, 0xf1, 0x7d, 0x7c, 0x80, 0x0f, 0x00, 0x4f, 0xc0, 0x00, 0xe0, 0x03,
   0xc0, 0x8f, 0xff, 0xf1, 0xfd, 0x7c, 0x80, 0x0f, 0xc0, 0x4f, 0x70, 0x3c,
   0xb8, 0x02, 0xc0, 0x8f, 0xff, 0xf1, 0xf9, 0x7c, 0x80, 0x0f, 0xf0, 0x47,
   0x1c, 0x24, 0x0c, 0x06, 0xc0, 0x8f, 0xff, 0xf1, 0xf9, 0x7c, 0x80, 0x03,
   0xf8, 0x43, 0x04, 0x24, 0xf4, 0x04, 0xc0, 0x8f, 0x3f, 0xf0, 0x79, 0x1c,
   0x00, 0x00, 0xf8, 0x60, 0x04, 0x24, 0x96, 0x04, 0xc0, 0x8f, 0x07, 0x70,
   0x00, 0x00, 0x00, 0x00, 0x00, 0x20, 0x04, 0x26, 0xf2, 0x0c, 0x00, 0x80,
   0x01, 0x00, 0x00, 0x00, 0x00, 0x00, 0x00, 0x20, 0x04, 0x22, 0x02, 0x08,
   0x00, 0x00, 0x00, 0x00, 0x00, 0x00, 0x00, 0x00, 0x00, 0x20, 0x04, 0x22,
   0x7e, 0x08, 0x00, 0x00, 0x00, 0x00, 0x00, 0x00, 0x00, 0x00, 0x00, 0xe0,
   0x07, 0x3e, 0xc0, 0x08, 0x00, 0x00, 0x00, 0x00, 0x00, 0x00, 0x00, 0x00,
   0x00, 0x00, 0x00, 0x00, 0x80, 0x08, 0x00, 0x00, 0x00, 0x00, 0x00, 0x00,
   0x00, 0x00, 0x00, 0x00, 0x00, 0x00, 0x80, 0x0c, 0x00, 0x00, 0x00, 0x00,
   0x00, 0x00, 0x00, 0x00, 0x00, 0x00, 0x00, 0x00, 0x80, 0x04, 0x00, 0x00,
   0x00, 0x00, 0x00, 0x00, 0x00, 0x00, 0x00, 0x00, 0x00, 0x00, 0xf8, 0x04,
   0x00, 0x00, 0x00, 0x00, 0x00, 0x00, 0x00, 0x00, 0x00, 0x00, 0x00, 0x00,
   0x0e, 0x06, 0x00, 0x00, 0x00, 0x00, 0x00, 0x00, 0x00, 0x00, 0x00, 0x00,
   0x00, 0x00, 0xf2, 0x03, 0x00, 0x00, 0x00, 0x00, 0x00, 0x00, 0x00, 0x00,
   0x00, 0x00, 0x00, 0x00, 0x1e, 0x00 };
