#define maiale_width 8
#define maiale_height 8
static unsigned char maiale_bits[] = {
   0x21, 0x72, 0xb4, 0xfe, 0x7f, 0x3f, 0x22, 0x22 };
